<!DOCTYPE svg PUBLIC "-//W3C//DTD SVG 1.1//EN"
		"http://www.w3.org/Graphics/SVG/1.1/DTD/svg11.dtd">
<svg version="1.1"
	viewBox="0 0 640 640"
	xmlns="http://www.w3.org/2000/svg"
	xmlns:xlink="http://www.w3.org/1999/xlink">

<rect x="0" y="0" width="640" height="640" fill="rgb(0, 185, 124)"
 rx="20" ry="20" stroke="gray" stroke-width="1" ></rect>

 <g transform="translate(64, 64)">
 	<!--
	<path
	 fill="rgb(0, 185, 124)" fill-rule="nonzero"
	 d="M496.656 285.683
	 C506.583 272.809 512 256 512 235.468
	 c-.001-37.674-32.073-72.571-72.727-72.571
	 h-70.15
	 c8.72-17.368 20.695-38.911 20.695-69.817
	 C389.819 34.672 366.518 0 306.91 0
	 c-29.995 0-41.126 37.918-46.829 67.228-3.407 17.511-6.626 34.052-16.525 43.951
	 C219.986 134.75 184 192 162.382 203.625
	 c-2.189.922-4.986 1.648-8.032 2.223
	 C148.577 197.484 138.931 192 128 192
	 H32
	 c-17.673 0-32 14.327-32 32
	 v256
	 c0 17.673 14.327 32 32 32
	 h96
	 c17.673 0 32-14.327 32-32
	 v-8.74
	 c32.495 0 100.687 40.747 177.455 40.726 5.505.003 37.65.03 41.013 0 59.282.014 92.255-35.887 90.335-89.793 15.127-17.727 22.539-43.337 18.225-67.105 12.456-19.526 15.126-47.07 9.628-69.405z"></path>
	 -->
	<path
	 fill="white" fill-rule="nonzero" stroke="white"
	 d="M32 480
	 V224h96v256H32zm424.017-203.648C472 288 472 336 450.41 347.017c13.522 22.76 1.352 53.216-15.015 61.996 8.293 52.54-18.961 70.606-57.212 70.974-3.312.03-37.247 0-40.727 0-72.929 0-134.742-40.727-177.455-40.727V235.625c37.708 0 72.305-67.939 106.183-101.818 30.545-30.545 20.363-81.454 40.727-101.817 50.909 0 50.909 35.517 50.909 61.091 0 42.189-30.545 61.09-30.545 101.817h111.999c22.73 0 40.627 20.364 40.727 40.727.099 20.363-8.001 36.375-23.984 40.727zM104 432c0 13.255-10.745 24-24 24s-24-10.745-24-24 10.745-24 24-24 24 10.745 24 24z"></path>
</g>
</svg>
